<svg id="Layer_1" data-name="Layer 1" xmlns="http://www.w3.org/2000/svg" viewBox="0 0 289.89 62.61"><defs><style>.cls-1{fill:#231f20;}</style></defs><title>Logo</title><path class="cls-1" d="M101.22,50.3l-9.46,0V15.73h9.45Z"/><path class="cls-1" d="M151.07,36.17H126.8a8.79,8.79,0,0,0,3.45,5.06A10.75,10.75,0,0,0,136.56,43a15.52,15.52,0,0,0,9.63-3.49l3.91,6.42a20.9,20.9,0,0,1-13.81,5.16,18.67,18.67,0,0,1-13.53-5.2A17.19,17.19,0,0,1,117.38,33,17.81,17.81,0,0,1,135.45,15,15.63,15.63,0,0,1,151.7,31,22.34,22.34,0,0,1,151.07,36.17Zm-21.2-11.72a9.64,9.64,0,0,0-3.07,5.09h15.76a6.61,6.61,0,0,0-2.23-5.09,7.69,7.69,0,0,0-5.23-1.88A7.86,7.86,0,0,0,129.87,24.45Z"/><path class="cls-1" d="M187.69,35.05a15.29,15.29,0,0,1-15.83,16,15.74,15.74,0,0,1-11.47-4.39q-4.5-4.39-4.5-11.65V15.73h9.42V35.82a6.28,6.28,0,0,0,6.56,6.63,6.27,6.27,0,0,0,4.57-1.81,6.44,6.44,0,0,0,1.85-4.81V15.73h9.42Z"/><path class="cls-1" d="M218,20.13l-4.74,5.79a11.06,11.06,0,0,0-7.74-3.28q-3.7,0-3.7,2.44a2,2,0,0,0,.8,1.64,10.66,10.66,0,0,0,2.82,1.43l3.35,1.4a22.17,22.17,0,0,1,7.36,4.36,8.35,8.35,0,0,1,2.34,6.17,9.65,9.65,0,0,1-3.8,8.09,15.37,15.37,0,0,1-9.66,2.93q-9.21,0-14.3-6.7l4.74-5.72q4.53,4.67,9.69,4.67a6.14,6.14,0,0,0,3.14-.73,2.33,2.33,0,0,0,1.26-2.13,2,2,0,0,0-.8-1.71A14.85,14.85,0,0,0,206,37.36l-3.7-1.53a21.32,21.32,0,0,1-7.08-4.32,8.47,8.47,0,0,1-2.34-6.21,9.15,9.15,0,0,1,3.52-7.64,14.46,14.46,0,0,1,9.17-2.75A15.83,15.83,0,0,1,218,20.13Z"/><path class="cls-1" d="M254.58,36.17H230.3a8.8,8.8,0,0,0,3.45,5.06A10.75,10.75,0,0,0,240.07,43a15.52,15.52,0,0,0,9.63-3.49l3.91,6.42a20.9,20.9,0,0,1-13.81,5.16,18.67,18.67,0,0,1-13.53-5.2A17.19,17.19,0,0,1,220.89,33,17.81,17.81,0,0,1,239,15,15.63,15.63,0,0,1,255.2,31,22.34,22.34,0,0,1,254.58,36.17Zm-21.2-11.72a9.64,9.64,0,0,0-3.07,5.09h15.76a6.61,6.61,0,0,0-2.23-5.09,7.69,7.69,0,0,0-5.23-1.88A7.86,7.86,0,0,0,233.37,24.45Z"/><path class="cls-1" d="M105.34,19.56c0,1.26,0,5.83,0,5.83h0s3.85,0,5.83,0c4.62,0,8-5.33,4.3-10.18C110.67,11.56,105.34,14.94,105.34,19.56Z"/><path class="cls-1" d="M270.42,33V50.26H261V15.73h9.45Z"/><path class="cls-1" d="M274.59,19.56c0,1.26,0,5.83,0,5.83s3.85,0,5.83,0c4.62,0,8-5.33,4.3-10.18C279.92,11.56,274.59,14.94,274.59,19.56Z"/><path class="cls-1" d="M52.18,44.72l.52-.92a29,29,0,0,0,3.87-14.45c0-16-11.8-28.15-27.44-28.15A30.44,30.44,0,0,0,2.3,17.33l-.36.72a9.2,9.2,0,0,0-1,4.09v29.4C1,54,3.59,58,3.59,58s4,2.75,6.54,2.75l35.76-.09a9.16,9.16,0,0,0,7-15.1Zm-10,.76,3.63,3.63a1.47,1.47,0,0,1-1,2.51H28.91a1.47,1.47,0,0,1-1.47-1.47V34.26a1.47,1.47,0,0,1,2.51-1l3.45,3.45a1.45,1.45,0,0,0,2.15-.1,11.11,11.11,0,0,0,2.63-7.11c0-5.92-3.57-9.75-9.08-9.75a11.74,11.74,0,0,0-9.45,4.7,1.46,1.46,0,0,0-.3.89V50.23a1.47,1.47,0,0,1-1.47,1.47H11.33a1.47,1.47,0,0,1-1.47-1.47V22.72a1.47,1.47,0,0,1,.15-.66l.34-.69c.23-.46,5.71-11.17,18.75-11.17,10.77,0,18.58,8.1,18.58,19.25a21,21,0,0,1-5.55,14A1.46,1.46,0,0,0,42.21,45.48Z"/></svg>